# xmcd
#
# Track frame offsets:
#	150
#	14700
#	29125
#	45195
#	57905
#	72595
#	85245
#	99237
#	112700
#	127992
#	140007
#	158492
#	175222
#	185712
#	204297
#	220060
#	248372
#	274655
#	288395
#	312870
#	327947
#
# Disc length: 4571 seconds
#
# Revision: 4
# Processed by: cddbd v1.5.2PL0 Copyright (c) Steve Scherf et al.
# Submitted via: audiograbber 1.83.01
#
DISCID=2511d915
DTITLE=Johnnie Taylor - Lifetime: A Retrospective Of Soul, Blues and Gospel (1956
DTITLE=1999) D2
DYEAR=2000
DGENRE=Soul
TTITLE0=Little Bluebird
TTITLE1=Toe Hold
TTITLE2=That's Where It's At
TTITLE3=I Ain't Particular
TTITLE4=Woman Across The River
TTITLE5=Who's Making Love
TTITLE6=I'm Not the Same Person
TTITLE7=I'd Rather Drink Muddy Water
TTITLE8=Mr. Nobody Is Somebody Now
TTITLE9=Take Care of Your Homework
TTITLE10=Testify (I Wanna)
TTITLE11=Separation Line
TTITLE12=I Could Never Be President
TTITLE13=Love Bones
TTITLE14=Steal Away
TTITLE15=Steal Away [Live]
TTITLE16=I Am Somebody (Parts 1 and 2)
TTITLE17=Jody's Got Your Girl and Gone
TTITLE18=I Don't Wanna Lose You (Parts 1 and 2)
TTITLE19=Don't Take My Sunshine
TTITLE20=Hijackin' Love
EXTD=
EXTT0=
EXTT1=
EXTT2=
EXTT3=
EXTT4=
EXTT5=
EXTT6=
EXTT7=
EXTT8=
EXTT9=
EXTT10=
EXTT11=
EXTT12=
EXTT13=
EXTT14=
EXTT15=
EXTT16=
EXTT17=
EXTT18=
EXTT19=
EXTT20=
PLAYORDER=
